HIERARCHY
ROOT Hips
{
 OFFSET 0.000000 0.000000 0.000000
 CHANNELS 6 Xposition Yposition Zposition Yrotation Xrotation Zrotation
 JOINT Chest
 {
  OFFSET 0.000000 0.087911 -0.065546
  CHANNELS 3 Yrotation Xrotation Zrotation
  JOINT Chest2
  {
   OFFSET 0.000000 0.074094 -0.000050
   CHANNELS 3 Yrotation Xrotation Zrotation
   JOINT Chest3
   {
    OFFSET 0.000000 0.105900 0.000026
    CHANNELS 3 Yrotation Xrotation Zrotation
    JOINT Chest4
    {
     OFFSET 0.000000 0.109216 0.000029
     CHANNELS 3 Yrotation Xrotation Zrotation
     JOINT Neck
     {
      OFFSET 0.000000 0.176282 -0.000024
      CHANNELS 3 Yrotation Xrotation Zrotation
      JOINT Head
      {
       OFFSET 0.000000 0.090319 0.000000
       CHANNELS 3 Yrotation Xrotation Zrotation
       End Site
       {
        OFFSET 0.000000 0.131706 0.000000
       }
      }
     }
     JOINT RightCollar
     {
      OFFSET -0.028133 0.110139 -0.000012
      CHANNELS 3 Yrotation Xrotation Zrotation
      JOINT RightShoulder
      {
       OFFSET -0.158561 0.000000 0.000000
       CHANNELS 3 Yrotation Xrotation Zrotation
       JOINT RightElbow
       {
        OFFSET -0.265160 0.000000 0.000000
        CHANNELS 3 Yrotation Xrotation Zrotation
        JOINT RightWrist
        {
         OFFSET -0.239129 0.000000 -0.000016
         CHANNELS 3 Yrotation Xrotation Zrotation
         End Site
         {
          OFFSET -0.175082 0.006533 0.000975
         }
        }
       }
      }
     }
     JOINT LeftCollar
     {
      OFFSET 0.028133 0.110139 -0.000012
      CHANNELS 3 Yrotation Xrotation Zrotation
      JOINT LeftShoulder
      {
       OFFSET 0.158561 0.000000 0.000000
       CHANNELS 3 Yrotation Xrotation Zrotation
       JOINT LeftElbow
       {
        OFFSET 0.265160 0.000000 0.000000
        CHANNELS 3 Yrotation Xrotation Zrotation
        JOINT LeftWrist
        {
         OFFSET 0.239129 0.000000 -0.000016
         CHANNELS 3 Yrotation Xrotation Zrotation
         End Site
         {
          OFFSET 0.175082 0.006533 0.000975
         }
        }
       }
      }
     }
    }
   }
  }
 }
 JOINT RightHip
 {
  OFFSET -0.094771 -0.000069 0.000011
  CHANNELS 3 Yrotation Xrotation Zrotation
  JOINT RightKnee
  {
   OFFSET 0.000000 -0.475024 0.000100
   CHANNELS 3 Yrotation Xrotation Zrotation
   JOINT RightAnkle
   {
    OFFSET 0.000000 -0.411622 0.001356
    CHANNELS 3 Yrotation Xrotation Zrotation
    JOINT RightToe
    {
     OFFSET 0.000000 -0.086895 0.180760
     CHANNELS 3 Yrotation Xrotation Zrotation
     End Site
     {
      OFFSET 0.000000 -0.009624 0.045094
     }
    }
   }
  }
 }
 JOINT LeftHip
 {
  OFFSET 0.094771 -0.000091 0.000014
  CHANNELS 3 Yrotation Xrotation Zrotation
  JOINT LeftKnee
  {
   OFFSET 0.000000 -0.475024 0.000100
   CHANNELS 3 Yrotation Xrotation Zrotation
   JOINT LeftAnkle
   {
    OFFSET 0.000000 -0.411622 0.001356
    CHANNELS 3 Yrotation Xrotation Zrotation
    JOINT LeftToe
    {
     OFFSET 0.000000 -0.086895 0.180760
     CHANNELS 3 Yrotation Xrotation Zrotation
     End Site
     {
      OFFSET 0.000000 -0.009624 0.045094
     }
    }
   }
  }
 }
}
MOTION
Frames: 15
Frame Time: 0.004167
0.144726 0.984144 0.144082 2.419222 9.738741 0.461638 -0.767051 1.416684 -0.918162 -0.274019 -12.846319 -0.434356 -0.189624 0.032015 -0.345381 -0.071033 9.508578 -0.099820 -1.785002 -0.241803 0.211786 -3.315741 -0.443727 0.399243 1.827606 -5.088565 9.010849 -6.315757 -3.805853 71.392529 3.295656 -6.143561 -3.029247 -0.554930 -1.163910 4.449451 1.251304 -6.197361 -6.010588 -4.823371 -2.429661 -73.947703 -3.128867 -8.042513 0.233874 0.329360 -0.794957 -1.896423 -1.920622 -3.803768 -3.710830 0.642515 0.864974 0.044199 -0.139912 -6.952820 2.896665 -0.000000 0.000000 -0.000000 2.250647 -3.839030 0.918849 0.287431 0.922032 -0.115018 -0.843325 -6.845857 -1.871840 -0.000000 0.000000 -0.000000
0.144621 0.984149 0.144046 2.422932 9.727792 0.454782 -0.767451 1.418595 -0.906433 -0.275410 -12.845437 -0.428616 -0.190545 0.032630 -0.341572 -0.071109 9.508753 -0.098716 -1.785756 -0.239352 0.208310 -3.317121 -0.439259 0.392729 1.825485 -5.078490 9.000284 -6.318990 -3.813221 71.395426 3.293602 -6.148606 -3.033598 -0.556041 -1.165316 4.444870 1.246473 -6.184407 -6.017933 -4.816022 -2.429923 -73.947459 -3.132330 -8.041283 0.234324 0.329420 -0.793771 -1.899421 -1.924737 -3.798090 -3.703772 0.647767 0.871997 0.058866 -0.142973 -6.952628 2.883123 -0.000000 0.000000 0.000000 2.248998 -3.825336 0.940204 0.289447 0.909482 -0.130251 -0.847571 -6.842056 -1.870025 -0.000000 -0.000000 0.000000
0.144515 0.984154 0.144010 2.426797 9.716747 0.447755 -0.767837 1.420414 -0.894559 -0.276810 -12.844599 -0.422805 -0.191471 0.033215 -0.337716 -0.071184 9.508920 -0.097597 -1.786523 -0.236711 0.204822 -3.318527 -0.434440 0.386189 1.823250 -5.068120 8.989691 -6.322402 -3.820813 71.398455 3.291235 -6.153958 -3.038211 -0.557227 -1.166830 4.440176 1.241343 -6.171165 -6.025194 -4.808700 -2.430133 -73.947232 -3.136068 -8.039671 0.234563 0.329460 -0.792491 -1.902727 -1.928878 -3.792380 -3.696591 0.653101 0.879216 0.073862 -0.146209 -6.952468 2.869340 0.000000 -0.000000 0.000000 2.247542 -3.811448 0.962010 0.291237 0.896655 -0.145875 -0.851931 -6.838127 -1.868132 -0.000000 0.000000 0.000000
0.144407 0.984159 0.143974 2.430772 9.705635 0.440608 -0.768213 1.422169 -0.882583 -0.278215 -12.843791 -0.416945 -0.192401 0.033778 -0.333825 -0.071259 9.509080 -0.096469 -1.787301 -0.233938 0.201324 -3.319952 -0.429375 0.379629 1.820936 -5.057543 8.979077 -6.325939 -3.828562 71.401576 3.288649 -6.159526 -3.043009 -0.558466 -1.168421 4.435401 1.236003 -6.157723 -6.032396 -4.801398 -2.430306 -73.947018 -3.140001 -8.037790 0.234657 0.329485 -0.791147 -1.906250 -1.933035 -3.786649 -3.689326 0.658493 0.886573 0.089089 -0.149566 -6.952333 2.855388 0.000000 0.000000 -0.000000 2.246222 -3.797423 0.984133 0.292870 0.883634 -0.161772 -0.856372 -6.834109 -1.866184 -0.000000 -0.000000 0.000000
0.144300 0.984164 0.143938 2.434811 9.694486 0.433392 -0.768585 1.423888 -0.870549 -0.279624 -12.843001 -0.411057 -0.193333 0.034328 -0.329916 -0.071334 9.509237 -0.095335 -1.788085 -0.231088 0.197823 -3.321387 -0.424169 0.373058 1.818574 -5.046849 8.968451 -6.329546 -3.836401 71.404751 3.285940 -6.165217 -3.047912 -0.559735 -1.170055 4.430581 1.230542 -6.144169 -6.039567 -4.794106 -2.430459 -73.946811 -3.144043 -8.035756 0.234666 0.329501 -0.789765 -1.909896 -1.937203 -3.780904 -3.682011 0.663919 0.894006 0.104448 -0.152993 -6.952211 2.841339 0.000000 0.000000 -0.000000 2.244981 -3.783322 1.006436 0.294417 0.870503 -0.177826 -0.860859 -6.830040 -1.864206 0.000000 -0.000000 0.000000
0.144192 0.984168 0.143902 2.438866 9.683327 0.426158 -0.768957 1.425597 -0.858501 -0.281035 -12.842216 -0.405162 -0.194266 0.034876 -0.326002 -0.071408 9.509393 -0.094200 -1.788871 -0.228220 0.194319 -3.322827 -0.418929 0.366484 1.816199 -5.036126 8.957822 -6.333172 -3.844263 71.407939 3.283201 -6.170939 -3.052842 -0.561010 -1.171701 4.425749 1.225047 -6.130587 -6.046730 -4.786817 -2.430605 -73.946606 -3.148114 -8.033685 0.234655 0.329515 -0.788373 -1.913574 -1.941373 -3.775156 -3.674686 0.669353 0.901458 0.119841 -0.156439 -6.952093 2.827266 0.000000 0.000000 -0.000000 2.243762 -3.769203 1.028784 0.295947 0.857346 -0.193920 -0.865358 -6.825958 -1.862220 -0.000000 -0.000000 0.000000
0.144084 0.984173 0.143867 2.442891 9.672189 0.418957 -0.769334 1.427323 -0.846482 -0.282446 -12.841422 -0.399282 -0.195199 0.035429 -0.322098 -0.071484 9.509550 -0.093068 -1.789654 -0.225391 0.190819 -3.324263 -0.413759 0.359916 1.813842 -5.025463 8.947199 -6.336761 -3.852080 71.411102 3.280526 -6.176600 -3.057720 -0.562268 -1.173325 4.420940 1.219606 -6.117065 -6.053912 -4.779523 -2.430760 -73.946399 -3.152130 -8.031691 0.234685 0.329532 -0.787000 -1.917189 -1.945539 -3.769413 -3.667386 0.674771 0.908869 0.135170 -0.159850 -6.951970 2.813242 -0.000000 -0.000000 0.000000 2.242509 -3.755124 1.051043 0.297529 0.844247 -0.209938 -0.869833 -6.821902 -1.860251 0.000000 0.000000 0.000000
0.143977 0.984178 0.143831 2.446840 9.661098 0.411842 -0.769720 1.429094 -0.834535 -0.283854 -12.840606 -0.393436 -0.196131 0.035997 -0.318218 -0.071559 9.509712 -0.091942 -1.790431 -0.222656 0.187324 -3.325688 -0.408765 0.353361 1.811537 -5.014949 8.936589 -6.340261 -3.859784 71.414201 3.278011 -6.182108 -3.062468 -0.563486 -1.174895 4.416187 1.214309 -6.103689 -6.061137 -4.772215 -2.430940 -73.946185 -3.156008 -8.029889 0.234820 0.329560 -0.785674 -1.920650 -1.949691 -3.763686 -3.660148 0.680149 0.916180 0.150336 -0.163174 -6.951831 2.799339 -0.000000 0.000000 -0.000000 2.241164 -3.741143 1.073077 0.299232 0.831289 -0.225762 -0.874251 -6.817909 -1.858322 -0.000000 -0.000000 -0.000000
0.143871 0.984183 0.143794 2.450667 9.650085 0.404863 -0.770121 1.430936 -0.822704 -0.285256 -12.839756 -0.387646 -0.197059 0.036590 -0.314377 -0.071636 9.509881 -0.090828 -1.791197 -0.220072 0.183839 -3.327093 -0.404054 0.346828 1.809317 -5.004672 8.926002 -6.343618 -3.867308 71.417196 3.275749 -6.187369 -3.067006 -0.564643 -1.176378 4.411525 1.209244 -6.090546 -6.068432 -4.764885 -2.431160 -73.945958 -3.159665 -8.028394 0.235123 0.329603 -0.784422 -1.923863 -1.953824 -3.757982 -3.653009 0.685461 0.923332 0.165241 -0.166361 -6.951667 2.785629 0.000000 -0.000000 -0.000000 2.239670 -3.727319 1.094749 0.301126 0.818556 -0.241275 -0.878577 -6.814018 -1.856457 -0.000000 -0.000000 0.000000
0.143766 0.984188 0.143758 2.454325 9.639178 0.398072 -0.770541 1.432878 -0.811033 -0.286652 -12.838858 -0.381934 -0.197983 0.037216 -0.310589 -0.071714 9.510059 -0.089730 -1.791949 -0.217698 0.180367 -3.328472 -0.399730 0.340325 1.807215 -4.994723 8.915447 -6.346778 -3.874585 71.420048 3.273833 -6.192293 -3.071255 -0.565714 -1.177741 4.406988 1.204499 -6.077722 -6.075821 -4.757524 -2.431435 -73.945714 -3.163019 -8.027321 0.235657 0.329670 -0.783272 -1.926737 -1.957928 -3.752313 -3.646006 0.690684 0.930265 0.179786 -0.169357 -6.951468 2.772185 0.000000 -0.000000 -0.000000 2.237970 -3.713709 1.115925 0.303279 0.806132 -0.256361 -0.882778 -6.810266 -1.854679 -0.000000 0.000000 0.000000
0.143664 0.984192 0.143722 2.457768 9.628405 0.391520 -0.770985 1.434946 -0.799565 -0.288038 -12.837900 -0.376321 -0.198901 0.037885 -0.306868 -0.071794 9.510250 -0.088650 -1.792681 -0.215589 0.176912 -3.329816 -0.395899 0.333859 1.805264 -4.985188 8.904932 -6.349688 -3.881548 71.422717 3.272359 -6.196785 -3.075137 -0.566676 -1.178952 4.402610 1.200163 -6.065303 -6.083329 -4.750125 -2.431780 -73.945447 -3.165986 -8.026785 0.236483 0.329765 -0.782253 -1.929178 -1.961998 -3.746687 -3.639176 0.695791 0.936920 0.193872 -0.172111 -6.951224 2.759079 0.000000 -0.000000 -0.000000 2.236007 -3.700372 1.136469 0.305761 0.794101 -0.270903 -0.886817 -6.806692 -1.853012 0.000000 0.000000 -0.000000
0.143563 0.984197 0.143685 2.460949 9.617795 0.385259 -0.771458 1.437168 -0.788344 -0.289412 -12.836867 -0.370826 -0.199812 0.038605 -0.303229 -0.071876 9.510455 -0.087595 -1.793390 -0.213803 0.173478 -3.331117 -0.392666 0.327440 1.803498 -4.976158 8.894465 -6.352293 -3.888128 71.425164 3.271420 -6.200755 -3.078574 -0.567509 -1.179977 4.398425 1.196325 -6.053376 -6.090983 -4.742679 -2.432211 -73.945153 -3.168483 -8.026900 0.237666 0.329896 -0.781391 -1.931093 -1.966025 -3.741112 -3.632556 0.700758 0.943240 0.207402 -0.174570 -6.950925 2.746384 0.000000 -0.000000 0.000000 2.233724 -3.687367 1.156245 0.308639 0.782547 -0.284784 -0.890662 -6.803335 -1.851481 -0.000000 0.000000 0.000000
0.143466 0.984202 0.143649 2.463822 9.607377 0.379340 -0.771963 1.439570 -0.777412 -0.290773 -12.835748 -0.365473 -0.200713 0.039386 -0.299686 -0.071959 9.510678 -0.086567 -1.794071 -0.212397 0.170068 -3.332369 -0.390138 0.321075 1.801950 -4.967720 8.884055 -6.354541 -3.894260 71.427350 3.271109 -6.204109 -3.081485 -0.568187 -1.180785 4.394468 1.193072 -6.042026 -6.098806 -4.735178 -2.432743 -73.944827 -3.170428 -8.027783 0.239268 0.330067 -0.780716 -1.932391 -1.970002 -3.735600 -3.626183 0.705561 0.949164 0.220276 -0.176683 -6.950561 2.734172 0.000000 0.000000 0.000000 2.231063 -3.674749 1.175117 0.311983 0.771553 -0.297886 -0.894277 -6.800231 -1.850107 -0.000000 0.000000 0.000000
0.143372 0.984207 0.143611 2.466341 9.597180 0.373815 -0.772506 1.442181 -0.766814 -0.292116 -12.834528 -0.360281 -0.201605 0.040237 -0.296254 -0.072046 9.510920 -0.085571 -1.794719 -0.211427 0.166685 -3.333561 -0.388419 0.314773 1.800653 -4.959964 8.873712 -6.356378 -3.899874 71.429236 3.271521 -6.206756 -3.083792 -0.568689 -1.181342 4.390772 1.190495 -6.031340 -6.106824 -4.727614 -2.433391 -73.944464 -3.171737 -8.029546 0.241351 0.330287 -0.780255 -1.932978 -1.973921 -3.730159 -3.620093 0.710175 0.954634 0.232395 -0.178398 -6.950122 2.722516 0.000000 0.000000 0.000000 2.227966 -3.662579 1.192950 0.315861 0.761202 -0.310094 -0.897628 -6.797421 -1.848916 -0.000000 0.000000 0.000000
0.143273 0.984212 0.143571 2.468659 9.586286 0.368226 -0.773202 1.445353 -0.755616 -0.293595 -12.833043 -0.354792 -0.202587 0.041274 -0.292634 -0.072148 9.511216 -0.084521 -1.795353 -0.210968 0.162984 -3.334726 -0.387658 0.307890 1.799678 -4.952348 8.862446 -6.357752 -3.905361 71.430840 3.272894 -6.208718 -3.085480 -0.569024 -1.181609 4.387232 1.188645 -6.020577 -6.115869 -4.719232 -2.434289 -73.944016 -3.172423 -8.032563 0.244351 0.330630 -0.780051 -1.932524 -1.978101 -3.724221 -3.613812 0.714887 0.959986 0.244748 -0.179724 -6.949579 2.710466 -0.000000 -0.000000 -0.000000 2.223951 -3.649819 1.211155 0.320857 0.750764 -0.322330 -0.900991 -6.794819 -1.847770 -0.000000 0.000000 0.000000
